<svg width="18" height="18" viewBox="0 0 18 18" fill="none" xmlns="http://www.w3.org/2000/svg">
<path d="M9 18C4.02945 18 0 13.9706 0 9C0 4.02945 4.02945 0 9 0C13.9706 0 18 4.02945 18 9C17.9944 13.9682 13.9682 17.9944 9 18ZM9 0.6C4.3608 0.6 0.6 4.3608 0.6 9C0.6 13.6392 4.3608 17.4 9 17.4C13.6392 17.4 17.4 13.6392 17.4 9C17.3947 4.36301 13.637 0.605288 9 0.6Z" fill="white"/>
<path d="M13.5 9.30019H6.3C6.13432 9.30019 6 9.16587 6 9.0002C6 8.83452 6.13432 8.7002 6.3 8.7002H13.5C13.6657 8.7002 13.8 8.83452 13.8 9.0002C13.8 9.16587 13.6657 9.30019 13.5 9.30019Z" fill="white"/>
<path d="M13.5 12.3002H6.3C6.13432 12.3002 6 12.1659 6 12.0002C6 11.8345 6.13432 11.7002 6.3 11.7002H13.5C13.6657 11.7002 13.8 11.8345 13.8 12.0002C13.8 12.1659 13.6657 12.3002 13.5 12.3002Z" fill="white"/>
<path d="M13.5 6.3002H6.3C6.13432 6.3002 6 6.16587 6 6.0002C6 5.83452 6.13432 5.7002 6.3 5.7002H13.5C13.6657 5.7002 13.8 5.83452 13.8 6.0002C13.8 6.16587 13.6657 6.3002 13.5 6.3002Z" fill="white"/>
<path d="M5.1002 6.3002H4.5002C4.33452 6.3002 4.2002 6.16587 4.2002 6.0002C4.2002 5.83452 4.33452 5.7002 4.5002 5.7002H5.1002C5.26587 5.7002 5.4002 5.83452 5.4002 6.0002C5.4002 6.16587 5.26587 6.3002 5.1002 6.3002Z" fill="#E31F25"/>
<path d="M5.1002 9.30019H4.5002C4.33452 9.30019 4.2002 9.16587 4.2002 9.0002C4.2002 8.83452 4.33452 8.7002 4.5002 8.7002H5.1002C5.26587 8.7002 5.4002 8.83452 5.4002 9.0002C5.4002 9.16587 5.26587 9.30019 5.1002 9.30019Z" fill="#E31F25"/>
<path d="M5.1002 12.3002H4.5002C4.33452 12.3002 4.2002 12.1659 4.2002 12.0002C4.2002 11.8345 4.33452 11.7002 4.5002 11.7002H5.1002C5.26587 11.7002 5.4002 11.8345 5.4002 12.0002C5.4002 12.1659 5.26587 12.3002 5.1002 12.3002Z" fill="#E31F25"/>
</svg>
